<?xml version="1.0" encoding="UTF-8" standalone="no"?>
<!-- Created with Inkscape (http://www.inkscape.org/) -->

<svg
   xmlns:dc="http://purl.org/dc/elements/1.1/"
   xmlns:cc="http://creativecommons.org/ns#"
   xmlns:rdf="http://www.w3.org/1999/02/22-rdf-syntax-ns#"
   xmlns:svg="http://www.w3.org/2000/svg"
   xmlns="http://www.w3.org/2000/svg"
   xmlns:sodipodi="http://sodipodi.sourceforge.net/DTD/sodipodi-0.dtd"
   xmlns:inkscape="http://www.inkscape.org/namespaces/inkscape"
   width="450"
   height="45"
   id="svg2"
   version="1.1"
   inkscape:version="0.48.3.1 r9886"
   sodipodi:docname="header.svg">
  <defs
     id="defs4" />
  <sodipodi:namedview
     id="base"
     pagecolor="#ffffff"
     bordercolor="#666666"
     borderopacity="1.0"
     inkscape:pageopacity="0.0"
     inkscape:pageshadow="2"
     inkscape:zoom="3.1355556"
     inkscape:cx="211.92417"
     inkscape:cy="18.99185"
     inkscape:document-units="px"
     inkscape:current-layer="layer1"
     showgrid="true"
     fit-margin-top="0"
     fit-margin-left="0"
     fit-margin-right="0"
     fit-margin-bottom="0"
     borderlayer="true"
     units="in"
     inkscape:showpageshadow="false"
     inkscape:window-width="1920"
     inkscape:window-height="1148"
     inkscape:window-x="0"
     inkscape:window-y="27"
     inkscape:window-maximized="1">
    <inkscape:grid
       type="xygrid"
       id="grid3141"
       empspacing="5"
       visible="true"
       enabled="true"
       snapvisiblegridlinesonly="true"
       units="in"
       spacingx="0.1in"
       spacingy="0.1in" />
  </sodipodi:namedview>
  <metadata
     id="metadata7">
    <rdf:RDF>
      <cc:Work
         rdf:about="">
        <dc:format>image/svg+xml</dc:format>
        <dc:type
           rdf:resource="http://purl.org/dc/dcmitype/StillImage" />
        <dc:title></dc:title>
      </cc:Work>
    </rdf:RDF>
  </metadata>
  <g
     inkscape:label="Layer 1"
     inkscape:groupmode="layer"
     id="layer1"
     transform="translate(-1.1178614,-1004.2806)">
    <g
       transform="matrix(0.89475927,0,0,-0.89475927,-1.5037832,1051.2686)"
       inkscape:label="header"
       id="g3012">
      <g
         id="g3014">
        <path
           id="path3016"
           style="fill:#363f09;fill-opacity:1;fill-rule:nonzero;stroke:none"
           d="M 49.426,27.133 C 49.426,14.609 39.273,4.457 26.75,4.457 14.223,4.457 4.07,14.609 4.07,27.133 c 0,12.523 10.153,22.679 22.68,22.679 12.523,0 22.676,-10.156 22.676,-22.679 z"
           inkscape:connector-curvature="0" />
        <path
           id="path3018"
           style="fill:#ffffff;fill-opacity:1;fill-rule:nonzero;stroke:none"
           d="m 25.973,47.371 c -0.25,-0.484 -0.25,-0.484 0.242,-0.973 3.336,0 6.57,-4.48 8.172,-11.218 0,0 -0.203,0 0.121,0.008 -1.664,7.308 -4.75,12.183 -8.535,12.183 z"
           inkscape:connector-curvature="0" />
        <path
           id="path3020"
           style="fill:#6a7f10;fill-opacity:1;fill-rule:nonzero;stroke:none"
           d="M 26.75,36.156 C 18.883,36.156 11.387,34.59 4.547,31.754 4.238,30.262 4.074,28.715 4.074,27.133 4.074,14.609 14.223,4.457 26.75,4.457 c 12.523,0 22.68,10.152 22.68,22.676 0,1.582 -0.164,3.129 -0.477,4.621 -6.84,2.836 -14.34,4.402 -22.203,4.402 z"
           inkscape:connector-curvature="0" />
        <path
           id="path3022"
           style="fill:#a33f1f;fill-opacity:1;fill-rule:nonzero;stroke:none"
           d="M 26.617,27.746 2.93,14.707 7.609,13.293 7.523,8.402 27.191,26.961 26.617,27.746 z"
           inkscape:connector-curvature="0" />
        <path
           id="path3024"
           style="fill:#a33f1f;fill-opacity:1;fill-rule:nonzero;stroke:none"
           d="m 30.414,30.781 -2.027,0.742 -2.18,-1.601 0.231,-2.008"
           inkscape:connector-curvature="0" />
        <path
           id="path3026"
           style="fill:#a33f1f;fill-opacity:1;fill-rule:nonzero;stroke:none"
           d="m 27.293,26.688 c 0,0 12.98,9.492 14.965,10.91 3.183,2.269 6.269,5.48 6.269,5.48 l 0.051,0.074 -0.082,-0.023 c 0,0 -3.996,-1.957 -7.133,-4.293 C 39.406,37.383 26.391,27.934 26.391,27.934 l 0.902,-1.246 z"
           inkscape:connector-curvature="0" />
        <path
           id="path3028"
           style="fill:#a33f1f;fill-opacity:1;fill-rule:nonzero;stroke:none"
           d="m 31.238,29.652 0.086,-2.156 -2.195,-1.586 -1.84,0.836"
           inkscape:connector-curvature="0" />
        <path
           id="path3030"
           style="fill:#ffffff;fill-opacity:1;fill-rule:nonzero;stroke:none"
           d="m 7.805,23.273 0,-6.011 1.664,0 0,2.48 C 9.48,19.73 9.5,19.73 9.5,19.73 c 0,0.043 -0.012,0.067 -0.031,0.067 l 4.465,0.012 c 0.882,0 1.601,0.718 1.601,1.586 l 0,2 c 0,0.867 -0.719,1.585 -1.601,1.585 l -4.504,0 C 8.496,24.996 7.754,24.234 7.805,23.273 z m 1.664,0.043 4.379,0 0,-1.836 -4.379,0 0,1.836"
           inkscape:connector-curvature="0" />
        <path
           id="path3032"
           style="fill:#ffffff;fill-opacity:1;fill-rule:nonzero;stroke:none"
           d="m 25.211,23.402 c 0,0.883 -0.719,1.59 -1.59,1.59 l -4.551,0 c -0.879,0 -1.59,-0.707 -1.59,-1.59 l 0,-1.523 c 0,-0.879 0.711,-1.59 1.59,-1.59 l 4.457,0 0,-1.351 -4.382,0 0,0.632 -1.665,0 0,-0.718 c 0,-0.879 0.711,-1.59 1.59,-1.59 l 4.551,0 c 0.871,0 1.59,0.711 1.59,1.59 l 0,1.523 c 0,0.883 -0.719,1.59 -1.59,1.59 l -4.476,0 0,1.351 4.382,0 0,-0.632 1.684,0 0,0.718"
           inkscape:connector-curvature="0" />
        <path
           id="path3034"
           style="fill:#ffffff;fill-opacity:1;fill-rule:nonzero;stroke:none"
           d="m 29.211,24.992 c -0.879,0 -1.59,-0.707 -1.59,-1.59 l 0,-6.14 1.664,0 0,2.492 4.383,0 0,-2.492 1.684,0 0,6.14 c 0,0.883 -0.719,1.59 -1.598,1.59 l -4.543,0 m 0.074,-3.562 0,1.886 4.383,0 0,-1.886 -4.383,0"
           inkscape:connector-curvature="0" />
        <path
           id="path3036"
           style="fill:#ffffff;fill-opacity:1;fill-rule:nonzero;stroke:none"
           d="m 45.488,23.402 c 0,0.883 -0.718,1.59 -1.586,1.59 l -4.554,0 c -0.879,0 -1.586,-0.707 -1.586,-1.59 l 0,-1.523 c 0,-0.879 0.707,-1.59 1.586,-1.59 l 4.457,0 0,-1.351 -4.379,0 0,0.632 -1.664,0 0,-0.718 c 0,-0.879 0.707,-1.59 1.586,-1.59 l 4.554,0 c 0.868,0 1.586,0.711 1.586,1.59 l 0,1.523 c 0,0.883 -0.718,1.59 -1.586,1.59 l -4.476,0 0,1.351 4.379,0 0,-0.632 1.683,0 0,0.718"
           inkscape:connector-curvature="0" />
        <path
           id="path3038"
           style="fill:#ffffff;fill-opacity:1;fill-rule:nonzero;stroke:none"
           d="m 25.973,47.371 c -4.649,0 -9.223,-7.476 -10.305,-17.578 -0.051,-0.473 -0.242,-0.965 -0.402,-1.441 0.054,-0.094 0.535,-0.305 0.941,-0.317 0.586,-0.012 0.941,0.168 1.086,0.317 -0.094,0.21 -0.125,0.98 -0.07,1.46 1.136,9.61 4.832,16.586 8.992,16.586 0.254,0.485 0.254,0.485 -0.242,0.973 z"
           inkscape:connector-curvature="0" />
        <path
           id="path3040"
           style="fill:#000000;fill-opacity:1;fill-rule:nonzero;stroke:none"
           d="m 68.102,30.676 c 0,-1.039 -0.356,-1.84 -1.067,-2.403 -0.707,-0.558 -1.723,-0.835 -3.047,-0.835 l -1.207,0 0,-4.043 -1.195,0 0,10.277 2.664,0 c 2.57,0 3.852,-0.996 3.852,-2.996 m -5.321,-2.215 1.074,0 c 1.059,0 1.829,0.172 2.301,0.516 0.473,0.339 0.711,0.89 0.711,1.644 0,0.68 -0.222,1.188 -0.668,1.52 -0.445,0.332 -1.14,0.5 -2.082,0.5 l -1.336,0 0,-4.18"
           inkscape:connector-curvature="0" />
        <path
           id="path3042"
           style="fill:#000000;fill-opacity:1;fill-rule:nonzero;stroke:none"
           d="m 76.043,27.254 c 0,-1.258 -0.316,-2.238 -0.949,-2.945 -0.633,-0.704 -1.508,-1.055 -2.625,-1.055 -0.688,0 -1.301,0.16 -1.836,0.484 -0.531,0.324 -0.945,0.785 -1.235,1.391 -0.293,0.605 -0.437,1.312 -0.437,2.125 0,1.254 0.312,2.234 0.941,2.93 0.629,0.703 1.5,1.054 2.618,1.054 1.078,0 1.933,-0.355 2.566,-1.074 0.637,-0.719 0.957,-1.687 0.957,-2.91 m -5.871,0 c 0,-0.984 0.195,-1.734 0.59,-2.25 0.394,-0.516 0.972,-0.774 1.734,-0.774 0.766,0 1.344,0.254 1.738,0.766 0.399,0.516 0.598,1.27 0.598,2.258 0,0.98 -0.199,1.723 -0.598,2.226 -0.394,0.512 -0.976,0.77 -1.75,0.77 -0.765,0 -1.339,-0.254 -1.73,-0.754 -0.391,-0.5 -0.582,-1.25 -0.582,-2.242"
           inkscape:connector-curvature="0" />
        <path
           id="path3044"
           style="fill:#000000;fill-opacity:1;fill-rule:nonzero;stroke:none"
           d="m 81.254,31.238 c 0.344,0 0.652,-0.027 0.922,-0.082 l -0.16,-1.082 c -0.321,0.071 -0.602,0.106 -0.844,0.106 -0.625,0 -1.16,-0.254 -1.606,-0.762 -0.437,-0.504 -0.66,-1.137 -0.66,-1.891 l 0,-4.132 -1.168,0 0,7.703 0.965,0 0.133,-1.426 0.059,0 c 0.285,0.5 0.628,0.887 1.031,1.16 0.402,0.273 0.847,0.406 1.328,0.406"
           inkscape:connector-curvature="0" />
        <path
           id="path3046"
           style="fill:#000000;fill-opacity:1;fill-rule:nonzero;stroke:none"
           d="m 86.789,24.215 c 0.207,0 0.406,0.015 0.598,0.043 0.191,0.031 0.343,0.066 0.457,0.097 l 0,-0.89 c -0.129,-0.063 -0.317,-0.113 -0.563,-0.149 -0.246,-0.043 -0.465,-0.062 -0.66,-0.062 -1.492,0 -2.238,0.785 -2.238,2.355 l 0,4.582 -1.102,0 0,0.563 1.102,0.484 0.492,1.649 0.676,0 0,-1.789 2.234,0 0,-0.907 -2.234,0 0,-4.535 c 0,-0.465 0.109,-0.82 0.332,-1.066 0.219,-0.25 0.519,-0.375 0.906,-0.375"
           inkscape:connector-curvature="0" />
        <path
           id="path3048"
           style="fill:#000000;fill-opacity:1;fill-rule:nonzero;stroke:none"
           d="m 89.391,34.332 1.168,0 0,-10.938 -1.168,0 0,10.938 z"
           inkscape:connector-curvature="0" />
        <path
           id="path3050"
           style="fill:#000000;fill-opacity:1;fill-rule:nonzero;stroke:none"
           d="m 97.785,23.395 -0.23,1.093 -0.059,0 c -0.383,-0.48 -0.769,-0.808 -1.152,-0.984 -0.379,-0.168 -0.856,-0.25 -1.426,-0.25 -0.766,0 -1.367,0.195 -1.801,0.59 -0.433,0.394 -0.648,0.953 -0.648,1.679 0,1.555 1.246,2.372 3.734,2.446 l 1.309,0.043 0,0.48 c 0,0.602 -0.133,1.047 -0.395,1.336 -0.258,0.289 -0.672,0.434 -1.246,0.434 -0.641,0 -1.367,-0.196 -2.18,-0.59 l -0.355,0.894 c 0.379,0.204 0.793,0.368 1.242,0.485 0.457,0.117 0.91,0.176 1.363,0.176 0.922,0 1.602,-0.204 2.039,-0.614 0.446,-0.406 0.668,-1.062 0.668,-1.961 l 0,-5.257 -0.863,0 m -2.637,0.82 c 0.727,0 1.297,0.199 1.707,0.597 0.418,0.399 0.629,0.958 0.629,1.676 l 0,0.696 -1.168,-0.051 c -0.929,-0.031 -1.597,-0.176 -2.011,-0.434 -0.407,-0.254 -0.614,-0.652 -0.614,-1.191 0,-0.422 0.129,-0.742 0.383,-0.961 0.258,-0.223 0.614,-0.332 1.074,-0.332"
           inkscape:connector-curvature="0" />
        <path
           id="path3052"
           style="fill:#000000;fill-opacity:1;fill-rule:nonzero;stroke:none"
           d="m 106.336,23.395 0,4.984 c 0,0.629 -0.145,1.098 -0.43,1.406 -0.285,0.309 -0.734,0.465 -1.344,0.465 -0.804,0 -1.394,-0.219 -1.769,-0.656 -0.375,-0.434 -0.563,-1.156 -0.563,-2.156 l 0,-4.043 -1.168,0 0,7.703 0.95,0 0.187,-1.055 0.059,0 c 0.238,0.383 0.574,0.676 1.004,0.879 0.433,0.211 0.914,0.316 1.441,0.316 0.93,0 1.629,-0.222 2.098,-0.672 0.469,-0.445 0.703,-1.16 0.703,-2.144 l 0,-5.027 -1.168,0"
           inkscape:connector-curvature="0" />
        <path
           id="path3054"
           style="fill:#000000;fill-opacity:1;fill-rule:nonzero;stroke:none"
           d="m 115.137,24.426 -0.063,0 c -0.539,-0.781 -1.344,-1.172 -2.418,-1.172 -1.008,0 -1.793,0.344 -2.355,1.031 -0.559,0.692 -0.836,1.668 -0.836,2.942 0,1.269 0.281,2.253 0.844,2.957 0.562,0.703 1.343,1.054 2.347,1.054 1.047,0 1.848,-0.379 2.406,-1.136 l 0.09,0 -0.05,0.554 -0.028,0.543 0,3.133 1.168,0 0,-10.937 -0.949,0 -0.156,1.031 m -2.332,-0.196 c 0.797,0 1.371,0.215 1.73,0.645 0.36,0.437 0.539,1.137 0.539,2.105 l 0,0.247 c 0,1.089 -0.183,1.867 -0.547,2.332 -0.363,0.468 -0.941,0.703 -1.738,0.703 -0.684,0 -1.207,-0.266 -1.574,-0.801 -0.36,-0.531 -0.543,-1.281 -0.543,-2.25 0,-0.984 0.183,-1.727 0.543,-2.231 0.359,-0.5 0.89,-0.75 1.59,-0.75"
           inkscape:connector-curvature="0" />
        <path
           id="path3056"
           style="fill:#000000;fill-opacity:1;fill-rule:nonzero;stroke:none"
           d="m 130.043,26.129 c 0,-0.906 -0.328,-1.609 -0.984,-2.117 -0.657,-0.508 -1.547,-0.758 -2.672,-0.758 -1.219,0 -2.157,0.156 -2.813,0.469 l 0,1.152 c 0.422,-0.176 0.879,-0.316 1.375,-0.422 0.5,-0.101 0.992,-0.152 1.477,-0.152 0.797,0 1.398,0.148 1.801,0.449 0.402,0.305 0.605,0.727 0.605,1.266 0,0.355 -0.074,0.648 -0.219,0.871 -0.14,0.23 -0.379,0.441 -0.715,0.633 -0.336,0.191 -0.843,0.41 -1.527,0.656 -0.957,0.34 -1.641,0.746 -2.055,1.215 -0.406,0.468 -0.609,1.082 -0.609,1.836 0,0.793 0.297,1.421 0.891,1.89 0.597,0.469 1.382,0.703 2.363,0.703 1.023,0 1.961,-0.187 2.82,-0.562 l -0.371,-1.039 c -0.851,0.355 -1.676,0.531 -2.476,0.531 -0.633,0 -1.129,-0.133 -1.485,-0.406 -0.355,-0.274 -0.535,-0.649 -0.535,-1.133 0,-0.356 0.066,-0.649 0.199,-0.879 0.129,-0.223 0.352,-0.434 0.66,-0.625 0.313,-0.187 0.793,-0.395 1.434,-0.625 1.078,-0.387 1.82,-0.797 2.223,-1.238 0.406,-0.442 0.613,-1.012 0.613,-1.715"
           inkscape:connector-curvature="0" />
        <path
           id="path3058"
           style="fill:#000000;fill-opacity:1;fill-rule:nonzero;stroke:none"
           d="m 134.457,24.215 c 0.207,0 0.406,0.015 0.598,0.043 0.191,0.031 0.343,0.066 0.457,0.097 l 0,-0.89 c -0.125,-0.063 -0.313,-0.113 -0.563,-0.149 -0.242,-0.043 -0.465,-0.062 -0.66,-0.062 -1.492,0 -2.238,0.785 -2.238,2.355 l 0,4.582 -1.102,0 0,0.563 1.102,0.484 0.492,1.649 0.676,0 0,-1.789 2.238,0 0,-0.907 -2.238,0 0,-4.535 c 0,-0.465 0.109,-0.82 0.332,-1.066 0.219,-0.25 0.523,-0.375 0.906,-0.375"
           inkscape:connector-curvature="0" />
        <path
           id="path3060"
           style="fill:#000000;fill-opacity:1;fill-rule:nonzero;stroke:none"
           d="m 141.797,23.395 -0.231,1.093 -0.058,0 c -0.383,-0.48 -0.766,-0.808 -1.153,-0.984 -0.378,-0.168 -0.855,-0.25 -1.425,-0.25 -0.766,0 -1.364,0.195 -1.801,0.59 -0.43,0.394 -0.649,0.953 -0.649,1.679 0,1.555 1.247,2.372 3.735,2.446 l 1.308,0.043 0,0.48 c 0,0.602 -0.132,1.047 -0.394,1.336 -0.258,0.289 -0.672,0.434 -1.242,0.434 -0.645,0 -1.371,-0.196 -2.18,-0.59 l -0.359,0.894 c 0.379,0.204 0.793,0.368 1.242,0.485 0.457,0.117 0.91,0.176 1.367,0.176 0.918,0 1.598,-0.204 2.039,-0.614 0.445,-0.406 0.668,-1.062 0.668,-1.961 l 0,-5.257 -0.867,0 m -2.637,0.82 c 0.727,0 1.297,0.199 1.711,0.597 0.414,0.399 0.625,0.958 0.625,1.676 l 0,0.696 -1.168,-0.051 c -0.93,-0.031 -1.598,-0.176 -2.012,-0.434 -0.406,-0.254 -0.609,-0.652 -0.609,-1.191 0,-0.422 0.125,-0.742 0.379,-0.961 0.258,-0.223 0.617,-0.332 1.074,-0.332"
           inkscape:connector-curvature="0" />
        <path
           id="path3062"
           style="fill:#000000;fill-opacity:1;fill-rule:nonzero;stroke:none"
           d="m 147.223,24.215 c 0.207,0 0.406,0.015 0.597,0.043 0.192,0.031 0.344,0.066 0.457,0.097 l 0,-0.89 c -0.125,-0.063 -0.312,-0.113 -0.562,-0.149 -0.242,-0.043 -0.465,-0.062 -0.66,-0.062 -1.493,0 -2.239,0.785 -2.239,2.355 l 0,4.582 -1.101,0 0,0.563 1.101,0.484 0.493,1.649 0.675,0 0,-1.789 2.239,0 0,-0.907 -2.239,0 0,-4.535 c 0,-0.465 0.11,-0.82 0.332,-1.066 0.219,-0.25 0.524,-0.375 0.907,-0.375"
           inkscape:connector-curvature="0" />
        <path
           id="path3064"
           style="fill:#000000;fill-opacity:1;fill-rule:nonzero;stroke:none"
           d="m 153.078,23.254 c -1.137,0 -2.039,0.344 -2.699,1.039 -0.656,0.695 -0.984,1.656 -0.984,2.891 0,1.242 0.304,2.226 0.914,2.961 0.613,0.73 1.437,1.093 2.468,1.093 0.965,0 1.731,-0.316 2.293,-0.953 0.563,-0.633 0.844,-1.473 0.844,-2.512 l 0,-0.738 -5.309,0 c 0.024,-0.906 0.25,-1.59 0.68,-2.058 0.438,-0.469 1.051,-0.704 1.836,-0.704 0.832,0 1.652,0.172 2.461,0.52 l 0,-1.043 c -0.41,-0.176 -0.805,-0.305 -1.172,-0.379 -0.367,-0.078 -0.808,-0.117 -1.332,-0.117 m -0.316,7.008 c -0.617,0 -1.114,-0.2 -1.481,-0.606 -0.367,-0.402 -0.582,-0.961 -0.648,-1.672 l 4.027,0 c 0,0.735 -0.164,1.297 -0.492,1.688 -0.328,0.394 -0.797,0.59 -1.406,0.59"
           inkscape:connector-curvature="0" />
        <path
           id="path3066"
           style="fill:#000000;fill-opacity:1;fill-rule:nonzero;stroke:none"
           d="m 169.875,23.395 -1.281,3.269 -4.121,0 -1.266,-3.269 -1.207,0 4.062,10.32 1.008,0 4.043,-10.32 -1.238,0 m -1.652,4.343 -1.196,3.184 c -0.156,0.406 -0.316,0.898 -0.48,1.484 -0.102,-0.449 -0.25,-0.945 -0.442,-1.484 l -1.21,-3.184 3.328,0"
           inkscape:connector-curvature="0" />
        <path
           id="path3068"
           style="fill:#000000;fill-opacity:1;fill-rule:nonzero;stroke:none"
           d="m 175.605,23.254 c -1.14,0 -2.039,0.344 -2.699,1.039 -0.656,0.695 -0.984,1.656 -0.984,2.891 0,1.242 0.305,2.226 0.914,2.961 0.613,0.73 1.434,1.093 2.465,1.093 0.969,0 1.73,-0.316 2.293,-0.953 0.562,-0.633 0.844,-1.473 0.844,-2.512 l 0,-0.738 -5.309,0 c 0.023,-0.906 0.25,-1.59 0.683,-2.058 0.434,-0.469 1.047,-0.704 1.836,-0.704 0.829,0 1.649,0.172 2.461,0.52 l 0,-1.043 c -0.414,-0.176 -0.804,-0.305 -1.175,-0.379 -0.368,-0.078 -0.809,-0.117 -1.329,-0.117 m -0.316,7.008 c -0.621,0 -1.113,-0.2 -1.484,-0.606 -0.367,-0.402 -0.582,-0.961 -0.649,-1.672 l 4.032,0 c 0,0.735 -0.165,1.297 -0.493,1.688 -0.328,0.394 -0.797,0.59 -1.406,0.59"
           inkscape:connector-curvature="0" />
        <path
           id="path3070"
           style="fill:#000000;fill-opacity:1;fill-rule:nonzero;stroke:none"
           d="m 183.598,31.238 c 0.34,0 0.648,-0.027 0.918,-0.082 l -0.161,-1.082 c -0.32,0.071 -0.601,0.106 -0.843,0.106 -0.625,0 -1.157,-0.254 -1.602,-0.762 -0.441,-0.504 -0.664,-1.137 -0.664,-1.891 l 0,-4.132 -1.164,0 0,7.703 0.961,0 0.133,-1.426 0.058,0 c 0.286,0.5 0.629,0.887 1.032,1.16 0.406,0.273 0.847,0.406 1.332,0.406"
           inkscape:connector-curvature="0" />
        <path
           id="path3072"
           style="fill:#000000;fill-opacity:1;fill-rule:nonzero;stroke:none"
           d="m 192.27,27.254 c 0,-1.258 -0.317,-2.238 -0.95,-2.945 -0.632,-0.704 -1.508,-1.055 -2.625,-1.055 -0.687,0 -1.3,0.16 -1.832,0.484 -0.535,0.324 -0.949,0.785 -1.238,1.391 -0.293,0.605 -0.437,1.312 -0.437,2.125 0,1.254 0.316,2.234 0.941,2.93 0.629,0.703 1.5,1.054 2.617,1.054 1.078,0 1.934,-0.355 2.566,-1.074 0.637,-0.719 0.958,-1.687 0.958,-2.91 m -5.872,0 c 0,-0.984 0.196,-1.734 0.59,-2.25 0.395,-0.516 0.973,-0.774 1.739,-0.774 0.761,0 1.339,0.254 1.734,0.766 0.398,0.516 0.598,1.27 0.598,2.258 0,0.98 -0.2,1.723 -0.598,2.226 -0.395,0.512 -0.977,0.77 -1.75,0.77 -0.766,0 -1.34,-0.254 -1.731,-0.754 -0.386,-0.5 -0.582,-1.25 -0.582,-2.242"
           inkscape:connector-curvature="0" />
        <path
           id="path3074"
           style="fill:#000000;fill-opacity:1;fill-rule:nonzero;stroke:none"
           d="m 199.277,25.496 c 0,-0.719 -0.265,-1.269 -0.8,-1.66 -0.536,-0.391 -1.286,-0.582 -2.25,-0.582 -1.02,0 -1.817,0.16 -2.391,0.484 l 0,1.082 c 0.371,-0.187 0.766,-0.336 1.187,-0.441 0.43,-0.109 0.84,-0.164 1.231,-0.164 0.609,0 1.078,0.097 1.406,0.289 0.328,0.195 0.492,0.496 0.492,0.894 0,0.297 -0.129,0.555 -0.39,0.766 -0.258,0.215 -0.766,0.469 -1.52,0.758 -0.719,0.269 -1.23,0.5 -1.535,0.695 -0.297,0.203 -0.523,0.43 -0.672,0.684 -0.148,0.254 -0.219,0.554 -0.219,0.906 0,0.629 0.254,1.125 0.766,1.484 0.512,0.368 1.211,0.547 2.102,0.547 0.832,0 1.64,-0.168 2.433,-0.504 l -0.414,-0.949 c -0.773,0.317 -1.476,0.477 -2.101,0.477 -0.555,0 -0.973,-0.086 -1.254,-0.258 -0.282,-0.176 -0.422,-0.414 -0.422,-0.719 0,-0.207 0.051,-0.383 0.156,-0.527 0.106,-0.145 0.277,-0.285 0.512,-0.414 0.234,-0.133 0.683,-0.321 1.351,-0.571 0.914,-0.332 1.532,-0.668 1.848,-1.003 0.324,-0.34 0.484,-0.762 0.484,-1.274"
           inkscape:connector-curvature="0" />
        <path
           id="path3076"
           style="fill:#000000;fill-opacity:1;fill-rule:nonzero;stroke:none"
           d="m 204.758,23.254 c -0.504,0 -0.961,0.09 -1.379,0.273 -0.414,0.188 -0.762,0.473 -1.043,0.856 l -0.082,0 c 0.055,-0.449 0.082,-0.875 0.082,-1.278 l 0,-3.171 -1.164,0 0,11.164 0.949,0 0.16,-1.055 0.055,0 c 0.301,0.422 0.652,0.727 1.051,0.914 0.398,0.188 0.855,0.281 1.371,0.281 1.019,0 1.808,-0.347 2.359,-1.047 0.559,-0.699 0.84,-1.675 0.84,-2.937 0,-1.266 -0.285,-2.25 -0.852,-2.953 -0.562,-0.699 -1.347,-1.047 -2.347,-1.047 m -0.172,6.996 c -0.785,0 -1.356,-0.219 -1.707,-0.656 -0.352,-0.434 -0.531,-1.129 -0.543,-2.082 l 0,-0.258 c 0,-1.082 0.184,-1.859 0.543,-2.328 0.359,-0.465 0.941,-0.696 1.738,-0.696 0.664,0 1.184,0.27 1.559,0.809 0.379,0.539 0.57,1.281 0.57,2.227 0,0.961 -0.191,1.699 -0.57,2.211 -0.375,0.515 -0.903,0.773 -1.59,0.773"
           inkscape:connector-curvature="0" />
        <path
           id="path3078"
           style="fill:#000000;fill-opacity:1;fill-rule:nonzero;stroke:none"
           d="m 214.742,23.395 -0.234,1.093 -0.055,0 c -0.387,-0.48 -0.769,-0.808 -1.152,-0.984 -0.383,-0.168 -0.856,-0.25 -1.43,-0.25 -0.762,0 -1.363,0.195 -1.801,0.59 -0.429,0.394 -0.644,0.953 -0.644,1.679 0,1.555 1.242,2.372 3.734,2.446 l 1.305,0.043 0,0.48 c 0,0.602 -0.129,1.047 -0.391,1.336 -0.258,0.289 -0.676,0.434 -1.246,0.434 -0.64,0 -1.367,-0.196 -2.18,-0.59 l -0.359,0.894 c 0.379,0.204 0.797,0.368 1.246,0.485 0.453,0.117 0.91,0.176 1.363,0.176 0.918,0 1.598,-0.204 2.04,-0.614 0.445,-0.406 0.667,-1.062 0.667,-1.961 l 0,-5.257 -0.863,0 m -2.637,0.82 c 0.727,0 1.293,0.199 1.707,0.597 0.418,0.399 0.626,0.958 0.626,1.676 l 0,0.696 -1.168,-0.051 c -0.926,-0.031 -1.598,-0.176 -2.008,-0.434 -0.41,-0.254 -0.614,-0.652 -0.614,-1.191 0,-0.422 0.125,-0.742 0.379,-0.961 0.258,-0.223 0.618,-0.332 1.078,-0.332"
           inkscape:connector-curvature="0" />
        <path
           id="path3080"
           style="fill:#000000;fill-opacity:1;fill-rule:nonzero;stroke:none"
           d="m 221.098,23.254 c -1.118,0 -1.981,0.34 -2.594,1.023 -0.609,0.692 -0.914,1.664 -0.914,2.918 0,1.289 0.308,2.285 0.926,2.989 0.625,0.703 1.511,1.054 2.66,1.054 0.367,0 0.738,-0.039 1.109,-0.117 0.371,-0.082 0.66,-0.176 0.871,-0.281 l -0.359,-0.992 c -0.258,0.101 -0.539,0.187 -0.844,0.254 -0.305,0.07 -0.574,0.105 -0.808,0.105 -1.563,0 -2.348,-1 -2.348,-2.996 0,-0.945 0.191,-1.672 0.57,-2.18 0.383,-0.508 0.953,-0.758 1.703,-0.758 0.641,0 1.301,0.137 1.973,0.415 l 0,-1.036 c -0.516,-0.265 -1.164,-0.398 -1.945,-0.398"
           inkscape:connector-curvature="0" />
        <path
           id="path3082"
           style="fill:#000000;fill-opacity:1;fill-rule:nonzero;stroke:none"
           d="m 228.137,23.254 c -1.141,0 -2.039,0.344 -2.703,1.039 -0.657,0.695 -0.985,1.656 -0.985,2.891 0,1.242 0.305,2.226 0.914,2.961 0.617,0.73 1.438,1.093 2.469,1.093 0.965,0 1.73,-0.316 2.293,-0.953 0.563,-0.633 0.844,-1.473 0.844,-2.512 l 0,-0.738 -5.309,0 c 0.024,-0.906 0.25,-1.59 0.684,-2.058 0.433,-0.469 1.047,-0.704 1.832,-0.704 0.832,0 1.652,0.172 2.461,0.52 l 0,-1.043 c -0.41,-0.176 -0.801,-0.305 -1.172,-0.379 -0.367,-0.078 -0.809,-0.117 -1.328,-0.117 m -0.317,7.008 c -0.621,0 -1.113,-0.2 -1.484,-0.606 -0.367,-0.402 -0.582,-0.961 -0.648,-1.672 l 4.031,0 c 0,0.735 -0.164,1.297 -0.492,1.688 -0.329,0.394 -0.797,0.59 -1.407,0.59"
           inkscape:connector-curvature="0" />
        <path
           id="path3084"
           style="fill:#000000;fill-opacity:1;fill-rule:nonzero;stroke:none"
           d="m 244.27,26.129 c 0,-0.906 -0.329,-1.609 -0.985,-2.117 -0.656,-0.508 -1.547,-0.758 -2.672,-0.758 -1.218,0 -2.156,0.156 -2.812,0.469 l 0,1.152 c 0.422,-0.176 0.879,-0.316 1.379,-0.422 0.496,-0.101 0.988,-0.152 1.476,-0.152 0.797,0 1.395,0.148 1.797,0.449 0.406,0.305 0.606,0.727 0.606,1.266 0,0.355 -0.071,0.648 -0.219,0.871 -0.141,0.23 -0.379,0.441 -0.715,0.633 -0.332,0.191 -0.844,0.41 -1.527,0.656 -0.957,0.34 -1.641,0.746 -2.051,1.215 -0.41,0.468 -0.613,1.082 -0.613,1.836 0,0.793 0.296,1.421 0.894,1.89 0.594,0.469 1.383,0.703 2.36,0.703 1.023,0 1.964,-0.187 2.82,-0.562 l -0.371,-1.039 c -0.848,0.355 -1.676,0.531 -2.477,0.531 -0.633,0 -1.125,-0.133 -1.484,-0.406 -0.356,-0.274 -0.531,-0.649 -0.531,-1.133 0,-0.356 0.062,-0.649 0.195,-0.879 0.133,-0.223 0.351,-0.434 0.66,-0.625 0.316,-0.187 0.793,-0.395 1.434,-0.625 1.078,-0.387 1.82,-0.797 2.222,-1.238 0.41,-0.442 0.614,-1.012 0.614,-1.715"
           inkscape:connector-curvature="0" />
        <path
           id="path3086"
           style="fill:#000000;fill-opacity:1;fill-rule:nonzero;stroke:none"
           d="m 252.848,27.254 c 0,-1.258 -0.317,-2.238 -0.95,-2.945 -0.632,-0.704 -1.507,-1.055 -2.625,-1.055 -0.687,0 -1.3,0.16 -1.832,0.484 -0.535,0.324 -0.949,0.785 -1.238,1.391 -0.293,0.605 -0.437,1.312 -0.437,2.125 0,1.254 0.316,2.234 0.941,2.93 0.629,0.703 1.5,1.054 2.617,1.054 1.078,0 1.934,-0.355 2.567,-1.074 0.636,-0.719 0.957,-1.687 0.957,-2.91 m -5.871,0 c 0,-0.984 0.195,-1.734 0.589,-2.25 0.395,-0.516 0.973,-0.774 1.739,-0.774 0.761,0 1.34,0.254 1.734,0.766 0.399,0.516 0.598,1.27 0.598,2.258 0,0.98 -0.199,1.723 -0.598,2.226 -0.394,0.512 -0.977,0.77 -1.75,0.77 -0.766,0 -1.34,-0.254 -1.73,-0.754 -0.387,-0.5 -0.582,-1.25 -0.582,-2.242"
           inkscape:connector-curvature="0" />
        <path
           id="path3088"
           style="fill:#000000;fill-opacity:1;fill-rule:nonzero;stroke:none"
           d="m 257.965,23.254 c -1.113,0 -1.981,0.34 -2.594,1.023 -0.609,0.692 -0.914,1.664 -0.914,2.918 0,1.289 0.309,2.285 0.93,2.989 0.621,0.703 1.508,1.054 2.656,1.054 0.371,0 0.742,-0.039 1.109,-0.117 0.371,-0.082 0.664,-0.176 0.875,-0.281 l -0.359,-0.992 c -0.258,0.101 -0.539,0.187 -0.844,0.254 -0.304,0.07 -0.574,0.105 -0.808,0.105 -1.567,0 -2.348,-1 -2.348,-2.996 0,-0.945 0.187,-1.672 0.566,-2.18 0.387,-0.508 0.954,-0.758 1.704,-0.758 0.64,0 1.3,0.137 1.976,0.415 l 0,-1.036 c -0.516,-0.265 -1.164,-0.398 -1.949,-0.398"
           inkscape:connector-curvature="0" />
        <path
           id="path3090"
           style="fill:#000000;fill-opacity:1;fill-rule:nonzero;stroke:none"
           d="m 262.914,23.395 -1.164,0 0,7.703 1.164,0 0,-7.703 m -1.266,9.793 c 0,0.265 0.067,0.46 0.2,0.582 0.129,0.128 0.293,0.191 0.492,0.191 0.187,0 0.348,-0.063 0.484,-0.191 0.137,-0.125 0.203,-0.321 0.203,-0.582 0,-0.262 -0.066,-0.461 -0.203,-0.59 -0.136,-0.129 -0.297,-0.192 -0.484,-0.192 -0.199,0 -0.363,0.063 -0.492,0.192 -0.133,0.129 -0.2,0.328 -0.2,0.59"
           inkscape:connector-curvature="0" />
        <path
           id="path3092"
           style="fill:#000000;fill-opacity:1;fill-rule:nonzero;stroke:none"
           d="m 268.66,23.254 c -1.14,0 -2.039,0.344 -2.699,1.039 -0.656,0.695 -0.984,1.656 -0.984,2.891 0,1.242 0.304,2.226 0.914,2.961 0.613,0.73 1.437,1.093 2.468,1.093 0.965,0 1.727,-0.316 2.289,-0.953 0.563,-0.633 0.844,-1.473 0.844,-2.512 l 0,-0.738 -5.308,0 c 0.023,-0.906 0.254,-1.59 0.683,-2.058 0.438,-0.469 1.047,-0.704 1.836,-0.704 0.828,0 1.649,0.172 2.461,0.52 l 0,-1.043 c -0.414,-0.176 -0.805,-0.305 -1.176,-0.379 -0.363,-0.078 -0.808,-0.117 -1.328,-0.117 m -0.316,7.008 c -0.617,0 -1.114,-0.2 -1.485,-0.606 -0.363,-0.402 -0.582,-0.961 -0.644,-1.672 l 4.027,0 c 0,0.735 -0.164,1.297 -0.492,1.688 -0.328,0.394 -0.797,0.59 -1.406,0.59"
           inkscape:connector-curvature="0" />
        <path
           id="path3094"
           style="fill:#000000;fill-opacity:1;fill-rule:nonzero;stroke:none"
           d="m 275.965,24.215 c 0.207,0 0.406,0.015 0.597,0.043 0.192,0.031 0.344,0.066 0.458,0.097 l 0,-0.89 c -0.125,-0.063 -0.313,-0.113 -0.563,-0.149 -0.242,-0.043 -0.465,-0.062 -0.66,-0.062 -1.492,0 -2.235,0.785 -2.235,2.355 l 0,4.582 -1.105,0 0,0.563 1.105,0.484 0.493,1.649 0.672,0 0,-1.789 2.238,0 0,-0.907 -2.238,0 0,-4.535 c 0,-0.465 0.113,-0.82 0.332,-1.066 0.218,-0.25 0.523,-0.375 0.906,-0.375"
           inkscape:connector-curvature="0" />
        <path
           id="path3096"
           style="fill:#000000;fill-opacity:1;fill-rule:nonzero;stroke:none"
           d="m 277.344,31.098 1.25,0 1.687,-4.395 c 0.371,-1 0.602,-1.726 0.692,-2.172 l 0.054,0 c 0.063,0.239 0.188,0.649 0.379,1.223 0.199,0.582 0.836,2.363 1.914,5.344 l 1.25,0 -3.308,-8.774 c -0.328,-0.867 -0.715,-1.48 -1.157,-1.844 -0.433,-0.363 -0.972,-0.546 -1.609,-0.546 -0.355,0 -0.707,0.039 -1.055,0.121 l 0,0.933 c 0.258,-0.054 0.547,-0.086 0.868,-0.086 0.8,0 1.371,0.453 1.714,1.352 l 0.43,1.098 -3.109,7.746"
           inkscape:connector-curvature="0" />
      </g>
    </g>
  </g>
</svg>
